<?xml version="1.0" encoding="UTF-8"?><svg id="Layer_2" xmlns="http://www.w3.org/2000/svg" viewBox="0 0 329.52 323.12"><defs><style>.cls-1{fill:#fff;}.cls-2{fill:none;stroke:#fff;stroke-miterlimit:10;}.cls-3{opacity:.55;}</style></defs><g id="Layer_1-2"><g><g class="cls-3"><path class="cls-1" d="M162.45,99.2c.12,11.38-11.49,19.61-22.07,14.79-12.94-5.81-13.3-24.33,.01-29.96,10.7-4.49,22.28,3.73,22.06,15.17h0Zm-.1,0c-.08-13.58-16.96-20.39-26.58-10.94-6.02,5.64-6.38,16.14-.29,21.91,9.53,9.47,26.81,2.55,26.86-10.97h0Z"/></g><path class="cls-2" d="M297.66,168.51c7.08,81.63-66.84,150.76-148.51,147.5C67.8,312.76-9.92,249.06,1.65,167.49S69.21,22.96,150.16,19.99c81.69-3,140.43,67.08,147.5,148.51Z"/><path class="cls-2" d="M310.14,218.66c-27.34,77.24-123.25,109.57-196.25,72.79C41.18,254.83-3.2,164.67,41.1,95.21,85.05,26.29,162.42-8.39,237.35,22.41c75.6,31.08,100.07,119.19,72.79,196.25Z"/><path class="cls-2" d="M291.81,213.99c-27.34,77.24-123.25,109.57-196.25,72.79C22.86,250.15-21.53,159.99,22.77,90.53,66.73,21.61,144.1-13.07,219.02,17.74c75.6,31.08,100.07,119.19,72.79,196.25Z"/><path class="cls-2" d="M315.31,226.31c-30.74,86.84-135.83,117.24-220.63,81.83C19.97,276.94-21.55,172.32,12.86,87.52,47.4,2.36,143.51-8.43,233.48,5.68c94.44,14.81,112.5,134,81.83,220.63Z"/><g class="cls-3"><path class="cls-1" d="M187.78,243.08c0,10.38-11.98,15.47-19.28,7.96-4.32-4.29-4.62-11.91-.15-16.26,7.38-7.42,19.58-2.04,19.43,8.3h0Zm-.1,0c0-9.43-12.07-14.18-18.67-7.63-4.22,3.92-4.57,11.31-.26,15.35,6.54,6.56,18.97,1.66,18.93-7.72h0Z"/></g><g class="cls-3"><path class="cls-1" d="M117.8,113.37c.12,11.38-11.49,19.61-22.07,14.79-12.94-5.81-13.3-24.33,.01-29.96,10.7-4.49,22.28,3.73,22.06,15.17h0Zm-.1,0c-.08-13.58-16.96-20.39-26.58-10.94-6.02,5.64-6.38,16.14-.29,21.91,9.53,9.47,26.81,2.55,26.86-10.97h0Z"/></g><g class="cls-3"><path class="cls-1" d="M203.81,105.21c-3.88,3.39-10.53,3.25-13.74-1.07-3.26-4.18-2.45-10.5,1.45-13.86,3.9-3.63,10.68-3.04,13.97,1.17,3.5,4.08,2.43,10.59-1.68,13.76h0Zm-.06-.08c6.13-5.05,2.62-15.56-5.14-16.3-4.83-.64-9.85,3.09-10.18,8.09-.75,7.71,9.31,13.29,15.31,8.21h0Z"/></g><g class="cls-3"><path class="cls-1" d="M99.83,196.76c-5.06,4.28-12.42,.56-11.58-6.12,.35-3.83,3.88-7.13,7.83-6.73,6.71,.56,8.95,8.77,3.75,12.85h0Zm-.06-.08c4.41-3.59,1.74-11.35-3.78-11.84-5.95-.71-9.86,6.11-5.7,10.66,2.28,2.63,6.64,3.56,9.48,1.18h0Z"/></g><g class="cls-3"><path class="cls-1" d="M244.05,167.23c-5.06,4.28-12.42,.56-11.58-6.12,.35-3.83,3.88-7.13,7.83-6.73,6.71,.56,8.95,8.77,3.75,12.85h0Zm-.06-.08c4.41-3.59,1.74-11.35-3.78-11.84-5.95-.71-9.86,6.11-5.7,10.66,2.28,2.64,6.64,3.56,9.48,1.18h0Z"/></g></g></g></svg>